<?xml version="1.0" standalone="no"?>
<!DOCTYPE svg PUBLIC "-//W3C//DTD SVG 20010904//EN"
 "http://www.w3.org/TR/2001/REC-SVG-20010904/DTD/svg10.dtd">
<svg version="1.0" xmlns="http://www.w3.org/2000/svg"
 width="128.000000pt" height="128.000000pt" viewBox="0 0 128.000000 128.000000"
 preserveAspectRatio="xMidYMid meet">

<g transform="translate(0.000000,128.000000) scale(0.100000,-0.100000)"
fill="#000000" stroke="none">
<path d="M558 1206 c-50 -18 -66 -29 -255 -173 -248 -189 -243 -179 -243 -512
0 -266 6 -299 66 -369 19 -22 57 -52 86 -66 l52 -26 375 0 c375 0 376 0 426
24 60 29 107 76 134 136 19 41 21 65 21 300 0 287 -5 307 -78 383 -40 41 -61
46 -85 19 -24 -26 -22 -35 23 -86 21 -26 42 -61 45 -79 3 -17 5 -136 3 -264
l-3 -231 -30 -38 c-61 -75 -57 -74 -450 -74 -401 0 -410 2 -462 81 l-28 42 -3
231 c-4 319 -22 284 250 489 231 174 249 176 430 37 57 -44 111 -80 120 -80
33 0 48 40 48 125 0 95 -12 118 -55 113 -26 -3 -31 -9 -40 -46 l-11 -42 -60
45 c-98 73 -188 92 -276 61z"/>
<path d="M514 675 c-18 -19 -23 -31 -19 -48 15 -47 61 -61 95 -27 27 27 25 55
-6 79 -34 27 -40 26 -70 -4z"/>
<path d="M702 684 c-41 -28 -20 -104 29 -104 24 0 59 34 59 58 0 44 -52 72
-88 46z"/>
<path d="M504 485 c-21 -33 -6 -71 31 -81 34 -8 53 0 67 30 16 36 -11 76 -52
76 -21 0 -35 -8 -46 -25z"/>
<path d="M692 498 c-20 -20 -15 -76 7 -88 61 -32 123 37 75 84 -18 19 -65 21
-82 4z"/>
</g>
</svg>
